<?xml version="1.0" encoding="UTF-8"?>
<svg version="1.1" xmlns="http://www.w3.org/2000/svg" width="1003" height="1003">
<path d="M0 0 C0.69003113 0.09945923 1.38006226 0.19891846 2.09100342 0.3013916 C98.19302145 14.1541752 189.59149245 52.79462393 263 117 C263.72960937 117.63035156 264.45921875 118.26070313 265.2109375 118.91015625 C267.15207512 120.59426577 269.07621066 122.29611148 271 124 C271.6801416 124.59530518 272.3602832 125.19061035 273.06103516 125.80395508 C280.0772801 132.01627087 286.71951828 138.56636405 293.33276367 145.20239258 C295.19142108 147.06643244 297.05539614 148.92503512 298.91992188 150.78320312 C304.82570907 156.68544502 310.62586549 162.60213037 316 169 C316.845625 169.96421875 317.69125 170.9284375 318.5625 171.921875 C326.8783185 181.57035672 334.46178151 191.7379234 342 202 C342.48388184 202.65677734 342.96776367 203.31355469 343.46630859 203.99023438 C393.47697486 272.09456458 422.99586487 351.71736218 435 435 C435.18079102 436.22058105 435.36158203 437.44116211 435.54785156 438.69873047 C441.11200783 478.17326654 440.83655948 522.5954206 435 562 C434.90054077 562.69003113 434.80108154 563.38006226 434.6986084 564.09100342 C420.8458248 660.19302145 382.20537607 751.59149245 318 825 C317.36964844 825.72960937 316.73929688 826.45921875 316.08984375 827.2109375 C314.40573423 829.15207512 312.70388852 831.07621066 311 833 C310.40469482 833.6801416 309.80938965 834.3602832 309.19604492 835.06103516 C302.98372913 842.0772801 296.43363595 848.71951828 289.79760742 855.33276367 C287.93356756 857.19142108 286.07496488 859.05539614 284.21679688 860.91992188 C278.31455498 866.82570907 272.39786963 872.62586549 266 878 C265.03578125 878.845625 264.0715625 879.69125 263.078125 880.5625 C253.42964328 888.8783185 243.2620766 896.46178151 233 904 C232.34322266 904.48388184 231.68644531 904.96776367 231.00976562 905.46630859 C162.90543542 955.47697486 83.28263782 984.99586487 0 997 C-1.22058105 997.18079102 -2.44116211 997.36158203 -3.69873047 997.54785156 C-43.17326654 1003.11200783 -87.5954206 1002.83655948 -127 997 C-127.69003113 996.90054077 -128.38006226 996.80108154 -129.09100342 996.6986084 C-225.19302145 982.8458248 -316.59149245 944.20537607 -390 880 C-390.72960937 879.36964844 -391.45921875 878.73929688 -392.2109375 878.08984375 C-394.15207512 876.40573423 -396.07621066 874.70388852 -398 873 C-399.0202124 872.10704224 -399.0202124 872.10704224 -400.06103516 871.19604492 C-407.0772801 864.98372913 -413.71951828 858.43363595 -420.33276367 851.79760742 C-422.19142108 849.93356756 -424.05539614 848.07496488 -425.91992188 846.21679688 C-431.82570907 840.31455498 -437.62586549 834.39786963 -443 828 C-443.845625 827.03578125 -444.69125 826.0715625 -445.5625 825.078125 C-453.8783185 815.42964328 -461.46178151 805.2620766 -469 795 C-469.48388184 794.34322266 -469.96776367 793.68644531 -470.46630859 793.00976562 C-520.47697486 724.90543542 -549.99586487 645.28263782 -562 562 C-562.18079102 560.77941895 -562.36158203 559.55883789 -562.54785156 558.30126953 C-568.11200783 518.82673346 -567.83655948 474.4045794 -562 435 C-561.90054077 434.30996887 -561.80108154 433.61993774 -561.6986084 432.90899658 C-547.8458248 336.80697855 -509.20537607 245.40850755 -445 172 C-444.36964844 171.27039063 -443.73929687 170.54078125 -443.08984375 169.7890625 C-441.40573423 167.84792488 -439.70388852 165.92378934 -438 164 C-437.10704224 162.9797876 -437.10704224 162.9797876 -436.19604492 161.93896484 C-429.98372913 154.9227199 -423.43363595 148.28048172 -416.79760742 141.66723633 C-414.93356756 139.80857892 -413.07496488 137.94460386 -411.21679688 136.08007812 C-405.31455498 130.17429093 -399.39786963 124.37413451 -393 119 C-392.03578125 118.154375 -391.0715625 117.30875 -390.078125 116.4375 C-380.42964328 108.1216815 -370.2620766 100.53821849 -360 93 C-359.34322266 92.51611816 -358.68644531 92.03223633 -358.00976562 91.53369141 C-289.90543542 41.52302514 -210.28263782 12.00413513 -127 0 C-125.16912842 -0.27118652 -125.16912842 -0.27118652 -123.30126953 -0.54785156 C-83.82673346 -6.11200783 -39.4045794 -5.83655948 0 0 Z " fill="#010101" transform="translate(565,3)"/>
<path d="M0 0 C2.51924904 -0.00181009 5.03849851 -0.00842675 7.557724 -0.01947021 C13.67552851 -0.0337595 19.79122658 0.00259546 25.90869896 0.06226899 C33.05309556 0.12951412 40.19718268 0.13644993 47.34184827 0.1406921 C60.10896538 0.15012097 72.87531485 0.21074828 85.64208984 0.30175781 C97.9855552 0.38967829 110.32859498 0.4465054 122.67236328 0.46582031 C123.43123171 0.46701406 124.19010014 0.46820781 124.97196458 0.46943773 C128.02381866 0.47418012 131.07567279 0.47889132 134.12752705 0.48351587 C145.94522312 0.50238115 157.7628507 0.54498245 169.58046433 0.59198496 C173.13444694 0.60607601 176.68842723 0.61919856 180.24242163 0.62995768 C188.35416118 0.65474227 196.46551567 0.69399313 204.57707405 0.75583649 C207.02254616 0.77242193 209.4680563 0.78427088 211.91357613 0.79072952 C232.29240732 0.85068575 251.66533912 2.68837157 271.30908203 8.29638672 C272.12860352 8.5276123 272.948125 8.75883789 273.79248047 8.99707031 C276.44745095 9.75162533 279.09775849 10.52054281 281.74658203 11.29638672 C282.97163452 11.65180542 282.97163452 11.65180542 284.22143555 12.0144043 C289.81072467 13.69261469 295.01454861 15.85724836 300.30908203 18.29638672 C301.85958695 18.96930618 303.41170473 19.63852036 304.96533203 20.30419922 C329.20053114 30.83227967 350.11365311 44.98837257 369.55908203 62.85888672 C370.125625 63.37684814 370.69216797 63.89480957 371.27587891 64.4284668 C385.29990067 77.49314402 397.09511093 93.54332845 406.30908203 110.29638672 C406.69966797 110.99683105 407.09025391 111.69727539 407.49267578 112.41894531 C412.1688515 120.83942307 416.33692738 129.10557003 419.30908203 138.29638672 C419.82105099 139.71628094 420.34131024 141.13322585 420.87158203 142.54638672 C421.11005859 143.18447266 421.34853516 143.82255859 421.59423828 144.47998047 C422.27620583 146.21284882 423.04089677 147.91247761 423.80908203 149.60888672 C432.84717888 171.82754147 434.9142391 198.42836041 434.80908203 222.17138672 C434.80634781 223.37764709 434.80634781 223.37764709 434.80355835 224.60827637 C434.7278757 238.16852011 433.4789316 251.38762068 430.30908203 264.60888672 C429.9526033 266.14250647 429.59712439 267.67635899 429.24267578 269.21044922 C429.07751465 269.92104492 428.91235352 270.63164062 428.7421875 271.36376953 C428.21291084 273.72552491 427.78740992 276.0998068 427.37158203 278.48388672 C425.3751136 288.71357895 421.35427433 298.72741458 417.30908203 308.29638672 C416.62458984 309.99408203 416.62458984 309.99408203 415.92626953 311.72607422 C406.54838729 334.51644074 393.11101795 355.77506847 375.96533203 373.49951172 C374.11017337 375.45288466 372.38702009 377.37543642 370.68798828 379.45263672 C367.55470672 383.1981687 364.03525462 386.16019145 360.30908203 389.29638672 C359.43251953 390.06080078 358.55595703 390.82521484 357.65283203 391.61279297 C325.67583495 419.0769074 283.84488345 435.59001976 242.30908203 441.29638672 C240.95834842 441.50427259 239.60799008 441.71463779 238.25830078 441.92919922 C232.20694584 442.84233781 226.42939896 443.5411994 220.30908203 443.29638672 C226.24510955 450.82561875 226.24510955 450.82561875 232.80908203 457.79638672 C235.57397282 460.46680516 237.97276768 463.29234664 240.37158203 466.29638672 C244.15296659 471.00210972 248.15975367 475.41312981 252.30908203 479.79638672 C257.12195569 484.8842635 261.66406957 490.07754211 266.03564453 495.55419922 C269.16828557 499.33274562 272.52005545 502.88684563 275.87475586 506.4675293 C278.93146702 509.74911979 281.8263419 513.09772821 284.62158203 516.60888672 C289.06182301 522.14907811 293.91134969 527.2448492 298.79614258 532.38891602 C303.09117407 536.93440555 307.09967987 541.61796128 310.99658203 546.51123047 C314.90028215 551.21281524 319.12173287 555.61826802 323.30126953 560.07373047 C326.15133773 563.11433003 328.91397014 566.21987096 331.63720703 569.37451172 C333.66666276 571.70743746 335.73672903 574.00149917 337.80908203 576.29638672 C341.07612538 579.91662395 344.30428979 583.56622237 347.50439453 587.24560547 C349.53866344 589.55727469 351.61130513 591.83170102 353.68408203 594.10888672 C356.88560636 597.64798674 359.94054266 601.26741777 362.93408203 604.98388672 C365.94441806 608.7077453 369.0523682 612.10473637 372.49658203 615.42138672 C374.75956777 617.76240644 376.76856526 620.25952803 378.80908203 622.79638672 C381.91008008 626.6489826 385.09530291 630.20388136 388.64501953 633.64013672 C390.99525783 635.97934103 393.12917252 638.48523041 395.29345703 640.99560547 C397.75388552 643.80411783 400.27886781 646.55097166 402.80908203 649.29638672 C406.45345061 653.25479786 410.04822419 657.24816006 413.57470703 661.31201172 C417.10407668 665.35011934 420.71478834 669.31612861 424.30908203 673.29638672 C429.0794214 678.5789773 433.8280261 683.87572807 438.50439453 689.24169922 C442.75811483 694.08467948 447.0935995 698.85608585 451.42626953 703.62841797 C453.73172635 706.17455435 456.020607 708.7349743 458.30908203 711.29638672 C458.86305664 711.90804687 459.41703125 712.51970703 459.98779297 713.14990234 C461.81331284 715.16908264 463.62449992 717.2004212 465.43408203 719.23388672 C466.02737305 719.88510498 466.62066406 720.53632324 467.23193359 721.20727539 C467.7755957 721.82320557 468.31925781 722.43913574 468.87939453 723.07373047 C469.37197754 723.62279053 469.86456055 724.17185059 470.37207031 724.73754883 C470.68128418 725.25196533 470.99049805 725.76638184 471.30908203 726.29638672 C470.97908203 727.28638672 470.64908203 728.27638672 470.30908203 729.29638672 C449.03807638 729.62416865 427.76749003 729.87066471 406.49446678 730.02175713 C396.61572975 730.09379383 386.73856636 730.19190717 376.86083984 730.35253906 C368.24613491 730.49256426 359.63256995 730.58251309 351.01675856 730.61362565 C346.45861235 730.63180066 341.90372571 730.67415784 337.3466301 730.77660751 C305.88080883 731.45705658 305.88080883 731.45705658 298.01281166 724.43599129 C295.88721409 722.08953819 294.08960346 719.68125276 292.42277908 716.99180984 C290.72731179 714.41073589 288.55164644 712.40017177 286.30908203 710.29638672 C285.01643474 709.02655085 283.72471189 707.75577299 282.43408203 706.48388672 C281.81791016 705.87931641 281.20173828 705.27474609 280.56689453 704.65185547 C278.68571294 702.68930789 276.91385751 700.69145926 275.14297485 698.63127136 C271.48959165 694.44689794 267.64622428 690.49882174 263.70898438 686.58276367 C262.6222216 685.49578186 262.6222216 685.49578186 261.51350403 684.38684082 C259.14304122 682.01706871 256.769066 679.65084947 254.39501953 677.28466797 C252.73526447 675.62678103 251.07573232 673.96867092 249.41641235 672.31034851 C245.06406136 667.96179952 240.70871717 663.61626064 236.35272217 659.2713623 C231.92230305 654.85117744 227.4947139 650.42815992 223.06689453 646.00537109 C215.91750149 638.86475055 208.7663828 631.72586375 201.61302185 624.58921814 C200.38593656 623.36495744 199.15918555 622.14036155 197.93284416 620.91535568 C196.49279365 619.47955604 195.04715368 618.04936723 193.60070801 616.62001038 C191.41707905 614.40589169 189.3525367 612.12992753 187.30175781 609.79296875 C182.13669083 604.02417708 176.69346756 598.56598522 171.20049667 593.11263657 C169.38071161 591.3058415 167.56426757 589.4957428 165.74856567 587.68484497 C161.89657647 583.84416985 158.04063557 580.00747789 154.18408203 576.17138672 C149.70183427 571.71287376 145.22129487 567.25267038 140.74496841 562.78821182 C138.96851108 561.01816337 137.18903601 559.25118938 135.40939331 557.48434448 C130.41858309 552.51591755 125.5262422 547.52407821 120.95169067 542.16384888 C117.73597455 538.5079396 114.2382429 535.1248233 110.77783203 531.70263672 C109.98308472 530.91167603 109.1883374 530.12071533 108.36950684 529.30578613 C105.85179772 526.80019149 103.33086757 524.29787814 100.80908203 521.79638672 C97.48320014 518.49726992 94.16075867 515.19474298 90.84033203 511.89013672 C90.08909058 511.1471936 89.33784912 510.40425049 88.56384277 509.63879395 C84.52204169 505.61559672 80.68478907 501.49330551 76.96322632 497.17315674 C74.41582695 494.28291143 71.69043435 491.59129664 68.93798828 488.89794922 C67.775755 487.74833489 66.61364906 486.59859181 65.45166016 485.44873047 C63.64726203 483.66934184 61.84126858 481.89162472 60.03295898 480.11621094 C58.26782751 478.38109308 56.50881518 476.63995831 54.75048828 474.89794922 C53.93034996 474.09800034 53.93034996 474.09800034 53.09364319 473.28189087 C51.79379685 471.99086449 50.5458666 470.64794639 49.30908203 469.29638672 C49.30908203 468.63638672 49.30908203 467.97638672 49.30908203 467.29638672 C86.26908203 467.29638672 123.22908203 467.29638672 161.30908203 467.29638672 C155.35903861 460.49625393 155.35903861 460.49625393 149.13941956 454.01319885 C148.66791361 453.54154405 148.19640767 453.06988925 147.71061367 452.58394188 C146.15929509 451.03330753 144.60445268 449.48625925 143.04956055 447.93920898 C141.92516595 446.81673706 140.8010014 445.69403465 139.67704773 444.57112122 C137.27167968 442.16889561 134.86477195 439.7682276 132.45663643 437.36877632 C128.65174833 433.57747313 124.85073368 429.7823023 121.05027771 425.98655701 C112.99368096 417.94102385 104.93283594 409.8997532 96.87158203 401.85888672 C88.14366144 393.15299157 79.4164844 384.44635841 70.69414657 375.73486942 C66.91217018 371.95788689 63.12776664 368.18335808 59.34151185 364.41066468 C56.99638665 362.07296643 54.65330605 359.73322731 52.31079292 357.39291191 C51.21996615 356.3039663 50.12827088 355.21588993 49.03567123 354.12872314 C47.55144526 352.65164954 46.07027311 351.17158165 44.58985901 349.69068909 C43.3424838 348.4466448 43.3424838 348.4466448 42.0699091 347.1774683 C40.30908203 345.29638672 40.30908203 345.29638672 40.30908203 344.29638672 C41.18316365 344.29399837 42.05724527 344.29161001 42.95781422 344.28914928 C64.3032362 344.22981115 85.64854704 344.15414215 106.99384785 344.06067181 C117.31660753 344.01585571 127.63933379 343.97640898 137.9621582 343.94995117 C146.96773595 343.92685552 155.9732067 343.89333026 164.97869939 343.84768516 C169.73958739 343.8239077 174.50037044 343.80507821 179.2613163 343.79877281 C183.75852897 343.79265101 188.25547365 343.77240136 192.75258636 343.74211121 C194.38778243 343.733443 196.02301368 343.72958454 197.65823174 343.73137856 C212.98556752 343.74286688 228.69007021 342.57230535 242.99658203 336.67138672 C243.86250977 336.3272876 244.7284375 335.98318848 245.62060547 335.62866211 C257.43484223 330.79230406 268.6468033 324.70311511 278.30908203 316.29638672 C279.53691406 315.24837891 279.53691406 315.24837891 280.78955078 314.17919922 C300.21555777 297.19246391 312.97254408 275.25878499 319.30908203 250.29638672 C319.49599609 249.60327393 319.68291016 248.91016113 319.87548828 248.19604492 C321.65310365 240.72864206 321.61288674 233.24773573 321.56982422 225.61987305 C321.55911862 223.36658722 321.56976291 221.1141013 321.58251953 218.86083984 C321.61474304 189.7804273 309.85597824 162.84172962 289.49658203 142.10888672 C274.47787345 127.31416014 257.32291191 118.24756588 237.30908203 112.29638672 C236.49086283 112.03423496 235.67264362 111.77208321 234.8296299 111.50198746 C223.28855097 108.2884555 211.51510061 108.89128806 199.63476562 108.93994141 C197.1415398 108.93914954 194.6483141 108.93704922 192.15509033 108.93374634 C186.10983193 108.92916121 180.0647397 108.93837384 174.01951186 108.9540343 C166.95911278 108.97167618 159.89873765 108.97299579 152.83831997 108.97364989 C140.2245427 108.97533444 127.61082315 108.9911025 114.99707031 109.01513672 C102.79914877 109.03836129 90.60126379 109.05255794 78.40332031 109.05615234 C77.65280751 109.05637511 76.90229471 109.05659788 76.12903909 109.0568274 C74.61676361 109.05727005 73.10448813 109.05771207 71.59221265 109.05815347 C70.84594178 109.05837303 70.0996709 109.0585926 69.33078575 109.05881882 C68.58621961 109.0590348 67.84165347 109.05925079 67.07452472 109.05947332 C55.39620757 109.06319121 43.71789619 109.0745522 32.03958546 109.08694921 C27.82985856 109.09135694 23.62013218 109.09480648 19.41040389 109.09757134 C12.09328249 109.10246035 4.77619161 109.11267885 -2.54091644 109.1283989 C-4.95823035 109.13287829 -7.37554792 109.13575006 -9.79286575 109.13680649 C-23.46352845 109.14411449 -37.04662545 109.45144673 -50.69091797 110.29638672 C-57.58623523 110.61800614 -64.47902527 110.81103636 -71.38085938 110.92114258 C-73.42855375 110.96312897 -75.47593484 111.02480523 -77.52246094 111.10571289 C-91.22261916 111.63398263 -100.45163071 110.70628195 -111.08166504 101.63540649 C-113.82811664 99.35015168 -116.76706196 97.34719169 -119.69091797 95.29638672 C-118.12068147 91.44216987 -115.64138166 89.18268166 -112.69091797 86.29638672 C-111.29970151 84.89709984 -109.90850844 83.49778948 -108.51799011 82.09780884 C-106.37124648 79.93748608 -104.22166452 77.77999584 -102.07202148 75.62255859 C-100.94741603 74.49292751 -99.82371015 73.36240012 -98.70092773 72.23095703 C-93.1097253 66.59792515 -87.53802408 61.03315286 -81.49487305 55.87988281 C-78.23251689 53.01621493 -75.22860563 49.89433652 -72.19091797 46.79638672 C-67.84859978 42.40722813 -63.50021296 38.14439516 -58.77685547 34.16357422 C-55.18926036 30.95220631 -51.85656281 27.48095934 -48.47216797 24.05810547 C-45.04130226 20.60330349 -41.57693504 17.28214334 -37.77220345 14.23468208 C-35.56308095 12.30724655 -35.56308095 12.30724655 -33.77429008 9.60612297 C-24.88642666 -1.84124143 -13.47859578 -0.20559327 0 0 Z " fill="#F7F7F7" transform="translate(384.69091796875,128.70361328125)"/>
<path d="M0 0 C3.69805391 1.84902696 6.71648548 3.96816651 9.9375 6.5 C11.10801269 7.41023371 12.27858725 8.32038785 13.44921875 9.23046875 C14.33939697 9.925354 14.33939697 9.925354 15.24755859 10.63427734 C17.90570499 12.70583919 20.57796517 14.75889839 23.25 16.8125 C23.7752124 17.21662109 24.3004248 17.62074219 24.84155273 18.03710938 C29.38742423 21.53382967 33.94323022 25.01749986 38.5 28.5 C46.71204044 34.7760318 54.90529063 41.07604455 63.09375 47.3828125 C64.65609375 48.58550781 64.65609375 48.58550781 66.25 49.8125 C66.77988525 50.22040771 67.30977051 50.62831543 67.85571289 51.04858398 C70.88759096 53.38076334 73.92394008 55.70694314 76.96484375 58.02734375 C78.37240818 59.10154632 79.77995997 60.17576545 81.1875 61.25 C81.90276855 61.79575684 82.61803711 62.34151367 83.35498047 62.90380859 C87.80581738 66.30552673 92.23125337 69.7376676 96.64257812 73.19042969 C104.50550833 79.34387769 112.4571791 85.35035494 120.54443359 91.20678711 C121.2864502 91.74698486 122.0284668 92.28718262 122.79296875 92.84375 C123.4377417 93.30974609 124.08251465 93.77574219 124.74682617 94.25585938 C125.49037354 94.83142578 126.2339209 95.40699219 127 96 C127.85130103 96.44808843 127.85130103 96.44808843 128.71980006 96.90522915 C131.0845997 98.39753878 132.42537284 99.66809765 134 102 C135.09201239 107.45219329 134.94963214 112.89523545 134.89561462 118.4294281 C134.90439656 120.14142748 134.91622679 121.85341349 134.93084341 123.565373 C134.96204126 128.27027241 134.94948275 132.97419698 134.92973173 137.67912114 C134.91596983 142.7528952 134.94241562 147.82648143 134.96366882 152.90020752 C134.9986819 162.84005462 134.9956297 172.77954308 134.97880536 182.71942406 C134.96573899 190.79705792 134.96594244 198.87458883 134.97564888 206.95222664 C134.97701023 208.10116755 134.97837159 209.25010847 134.9797742 210.43386577 C134.98258453 212.76781148 134.98541973 215.10175716 134.98827953 217.43570281 C135.01342361 239.33065011 134.99484532 261.22539673 134.96189285 283.12032277 C134.93470778 301.91180677 134.94715857 320.70293024 134.98803711 339.49438477 C135.03548401 361.30855587 135.05674542 383.12250461 135.03740031 404.93672615 C135.03542208 407.26246993 135.03348436 409.58821375 135.0315876 411.9139576 C135.03064838 413.05830845 135.02970917 414.2026593 135.02874149 415.38168744 C135.02398424 423.45018007 135.03817456 431.51851231 135.05979729 439.58697319 C135.08570963 449.41917026 135.08337971 459.25086986 135.0446034 469.0830329 C135.02555135 474.10082172 135.01937859 479.11775164 135.04785156 484.13551521 C135.07355775 488.72835791 135.0623913 493.31957359 135.02170212 497.9122944 C135.01345356 499.57439827 135.01872645 501.23663514 135.03881692 502.89863806 C135.17769651 515.30221345 135.17769651 515.30221345 132.29391205 519.45952427 C130.27914835 521.25643645 128.31306193 522.61905223 126 524 C124.64140286 525.04451516 123.29223532 526.10152421 121.95703125 527.17578125 C120.57777787 528.22432971 119.1962132 529.269844 117.8125 530.3125 C116.32786362 531.43715505 114.84349177 532.56215936 113.359375 533.6875 C112.62912109 534.24050781 111.89886719 534.79351563 111.14648438 535.36328125 C109.11163084 536.91488022 107.09187833 538.48365143 105.078125 540.0625 C104.48153076 540.52873779 103.88493652 540.99497559 103.27026367 541.4753418 C101.6584979 542.73733481 100.04985128 544.00330857 98.44140625 545.26953125 C96 547 96 547 94 547 C94 523.9 94 500.8 94 477 C97.465 475.02 97.465 475.02 101 473 C105.27126061 467.49232184 106.65841325 462.91932472 106 456 C105.03412263 451.36074649 103.9501739 447.9501739 100.5625 444.5625 C94.05545645 440.59479052 88.64190647 439.95128968 81 441 C75.83152997 443.39221755 72.48716113 446.89243696 70 452 C69.16349842 458.5525957 68.90229859 465.53639812 73 471 C75.44107178 473.37597654 77.93311416 475.46655708 81 477 C81.30209237 487.51795745 81.53262805 498.03487299 81.67355824 508.55629539 C81.74122514 513.44290444 81.83287521 518.32653266 81.98071289 523.21142578 C82.12267288 527.93201225 82.19983071 532.64974593 82.23340416 537.37230301 C82.25730442 539.16753689 82.30398547 540.9626257 82.37449074 542.75663376 C82.8898468 556.42174874 82.8898468 556.42174874 79.74657822 560.70999908 C76.25924203 564.18380473 72.22862868 566.53381461 68 569 C66.22574458 570.36486937 64.47032812 571.75525635 62.75 573.1875 C61.56664062 574.13689453 61.56664062 574.13689453 60.359375 575.10546875 C58.72303177 576.41941985 57.08768353 577.73461065 55.453125 579.05078125 C54.64359375 579.69402344 53.8340625 580.33726562 53 581 C51.9171875 581.86625 51.9171875 581.86625 50.8125 582.75 C49 584 49 584 47 584 C45.84326183 560.07942263 44.98568443 536.16315108 44.46120358 512.22002506 C44.2108995 501.0947754 43.87034056 489.98726618 43.3034668 478.87329102 C39.24312877 397.72046332 39.24312877 397.72046332 61.30282307 373.25899029 C71.36352317 362.58281784 83.27172883 352.34494205 96 345 C96.66 345 97.32 345 98 345 C99.06282369 341.81152894 99.10597784 339.59489512 99.07836914 336.24682617 C99.07249283 335.0651738 99.06661652 333.88352142 99.06056213 332.6660614 C99.05217819 331.38794083 99.04379425 330.10982025 99.03515625 328.79296875 C99.03886901 326.09567379 99.04444957 323.39844994 99.05273438 320.70117188 C99.06497544 316.44126375 99.06668315 312.18235956 99.02416992 307.92260742 C98.99719159 305.14585605 98.99130236 302.37065127 99.00938416 299.59382629 C99.02627754 296.979493 99.01315825 294.36475525 98.96681213 291.7507782 C99.08475568 283.07295793 99.08475568 283.07295793 101.75753784 279.93960571 C103.90405273 278.3527832 103.90405273 278.3527832 106.03977966 277.15156555 C109.32412061 275.2221223 110.87125987 272.5766953 112 269 C113.06510194 262.22106994 111.99734372 256.60666392 108 251 C103.55398072 246.66798121 99.38638666 244.91731223 93.25 244.5 C87.27725899 244.64263262 83.27090084 246.91176498 79 251 C75.79912033 255.19306609 74.28849344 259.57322381 74.625 264.92578125 C75.361713 269.00072505 76.55469012 272.64346616 79 276 C80.32632176 276.81136988 81.65553095 277.61802678 82.98657227 278.42163086 C86.52175497 281.05163603 87.65490463 282.89667666 88.40014648 287.23803711 C88.60519986 289.33031783 88.75917615 291.42802006 88.87109375 293.52734375 C88.94489761 294.65705093 89.01870148 295.78675812 89.09474182 296.95069885 C89.28442931 300.61476478 89.37793867 304.26909629 89.4375 307.9375 C89.47846802 309.79689209 89.47846802 309.79689209 89.52026367 311.69384766 C89.64786735 326.48244209 88.51982464 338.22243786 78.35289001 349.49729919 C72.01919856 355.93841028 64.9684056 361.52483908 57.65039062 366.796875 C55.02391242 368.71156207 52.56215924 370.75695997 50.20586395 372.99422646 C48.45477928 374.58647302 46.69375226 376.02232218 44.83179474 377.47481346 C38.82268187 382.43844507 34.41586258 386.84554021 33.59027863 394.85294557 C33.40279582 399.3473475 33.49727528 403.80887297 33.63867188 408.30322266 C33.65378521 410.32664045 33.66294259 412.35011008 33.66664124 414.37358093 C33.68642601 418.70834627 33.74627978 423.03998802 33.83766174 427.37382889 C33.98047421 434.23338641 34.02285833 441.09138536 34.05065918 447.95223999 C34.12359239 462.51091821 34.30609168 477.06750606 34.5 491.625 C34.70940387 507.35124016 34.89970438 523.07630816 34.96346903 538.8039192 C34.99484142 545.61785556 35.08921443 552.42706449 35.23270416 559.23952127 C35.30907442 563.48262966 35.33121366 567.72479538 35.33898735 571.96853065 C35.35364513 573.92832386 35.39060031 575.88810358 35.45208931 577.84698677 C35.92199293 593.38879725 35.92199293 593.38879725 31.15989685 598.56188583 C28.01270818 601.44827374 24.60241796 603.7185486 21 606 C19.59917379 607.09382832 18.20848361 608.20130229 16.84375 609.33984375 C15.7312248 610.20837195 14.61676162 611.07442582 13.5 611.9375 C8.81868103 615.57587149 8.81868103 615.57587149 4.21875 619.31640625 C2 621 2 621 0 621 C-0.09152599 587.70787947 -0.16202368 554.41579021 -0.20426132 521.12357183 C-0.20926423 517.19444156 -0.21444151 513.26531154 -0.21972656 509.33618164 C-0.2207758 508.55395212 -0.22182505 507.7717226 -0.22290608 506.96578916 C-0.24031833 494.29473664 -0.27186051 481.62375659 -0.30861118 468.95274708 C-0.34599783 455.95419482 -0.36823103 442.95568055 -0.37635398 429.95707673 C-0.3818465 421.93415413 -0.39920317 413.91143638 -0.43166587 405.88857683 C-0.45527993 399.73991758 -0.4578256 393.591415 -0.45243073 387.4427166 C-0.4535338 384.91792665 -0.46152518 382.39312916 -0.4768219 379.86838531 C-0.49664942 376.42790365 -0.49196482 372.98830685 -0.48101807 369.54780579 C-0.49266943 368.54294154 -0.5043208 367.53807729 -0.51632524 366.50276262 C-0.47924498 362.20723403 -0.44010201 359.71575551 1.84646988 355.99701214 C4.48062123 353.55431019 7.21718989 351.27168173 10 349 C10.71283646 348.24352173 11.42567291 347.48704346 12.16011047 346.7076416 C14.40426777 344.56799018 16.38101822 342.98239962 18.92741394 341.28161621 C33.4078628 331.59208969 49.78949125 318.8162206 53.6010803 300.91931248 C55.38603554 290.73580834 55.57514455 280.40763499 55.55078125 270.09375 C55.54905584 269.26099926 55.54733043 268.42824852 55.54555273 267.57026291 C55.49478511 257.19455048 55.13302574 246.83822842 54.65803707 236.47425556 C54.13367296 224.9203894 53.87659192 213.35938008 53.63959789 201.79651642 C53.62204348 200.94522895 53.60448907 200.09394149 53.58640271 199.21685743 C53.55146392 197.52047575 53.51701199 195.82408396 53.48306149 194.12768221 C53.37769379 189.18725478 53.21219517 184.25355521 52.99224246 179.31692886 C52.86110571 176.26794541 52.76059816 173.21840355 52.66559219 170.16810417 C52.61393745 168.75696441 52.54807207 167.34626205 52.46693611 165.93651009 C52.23445048 161.85230852 52.08290403 158.00089505 53 154 C54.89190442 151.97782712 56.47358019 151.01830501 59.02037334 149.96077728 C62.05608668 148.48744675 63.09667383 146.26679853 64.375 143.2421875 C65.90363728 137.75820125 66.03034945 132.31968802 63.375 127.1875 C60.45194192 123.26444836 57.43725041 120.2186252 53 118 C47.14524289 117.50671245 41.81015719 117.14255712 36.4375 119.6875 C31.22322704 124.63437435 28.03012428 128.97022744 27.5625 136.25 C27.70420059 141.5549158 29.51672033 145.99614227 33 150 C34.18192583 150.74494111 35.38820729 151.45206842 36.61108398 152.12768555 C38.28859741 153.0544812 38.28859741 153.0544812 40 154 C40.18703358 173.1584585 40.32802915 192.31673129 40.41449738 211.475914 C40.45571672 220.37227429 40.51189404 229.26806674 40.60351562 238.1640625 C40.68335236 245.91951715 40.73488891 253.6745605 40.75270796 261.43041468 C40.76312158 265.53584885 40.78752326 269.64010659 40.84584045 273.74516296 C40.90034165 277.6131195 40.91685413 281.47942085 40.90486145 285.34772491 C40.90705366 286.76350671 40.92285351 288.17934659 40.9536438 289.59479523 C41.17386248 300.24515561 41.17386248 300.24515561 38.28991699 304.55645752 C36.29277107 306.58575031 34.27782218 308.29741668 32 310 C30.74268045 311.07765414 29.49045989 312.16132042 28.24609375 313.25390625 C27.58722168 313.82125488 26.92834961 314.38860352 26.24951172 314.97314453 C21.32055684 319.41423238 16.72201498 324.21681933 12.0625 328.9375 C9.99372962 331.03278903 7.92170002 333.12477613 5.84765625 335.21484375 C4.94023682 336.13386475 4.03281738 337.05288574 3.09790039 337.99975586 C1 340 1 340 0 340 C0 227.8 0 115.6 0 0 Z " fill="#F6F6F6" transform="translate(259,244)"/>
<path d="M0 0 C-0.33 0.99 -0.66 1.98 -1 3 C-1.66 3 -2.32 3 -3 3 C-2.99078207 3.77414938 -2.98156414 4.54829876 -2.97206688 5.34590721 C-2.75092888 24.20931616 -2.58560177 43.0724654 -2.48187828 61.93689537 C-2.43038064 71.05980443 -2.36021228 80.18184667 -2.24560547 89.30419922 C-2.14572523 97.25817416 -2.08136952 105.21152121 -2.05911505 113.16610587 C-2.04611144 117.37583469 -2.0157026 121.58376779 -1.94269943 125.79291916 C-1.87443565 129.76124408 -1.85395749 133.72704745 -1.86892319 137.69590378 C-1.86618875 139.14636991 -1.84651603 140.59692685 -1.80794525 142.04688263 C-1.65194961 148.21766846 -1.5764683 153.05022817 -5.30257034 158.15376663 C-7.76075201 160.63048336 -10.23917936 162.86978973 -13 165 C-13.66 164.67 -14.32 164.34 -15 164 C-14.29236071 163.45423876 -13.58472141 162.90847752 -12.8556385 162.34617805 C-7.43667185 157.67119891 -4.36357931 154.27571534 -3.75949097 146.98898315 C-3.71289803 144.25340316 -3.71908684 141.55197933 -3.77294922 138.81982422 C-3.76589476 137.31095318 -3.75444479 135.80209734 -3.7389679 134.29328918 C-3.70954333 130.22490953 -3.74109007 126.15908104 -3.78413153 122.09090948 C-3.81867074 117.8294176 -3.79639027 113.56821844 -3.78030396 109.30667114 C-3.75843777 101.24948488 -3.78719144 93.19331777 -3.834427 85.13627255 C-3.88574698 75.95839789 -3.88018854 66.78082818 -3.87000632 57.60284781 C-3.85034013 38.73488017 -3.90160174 19.86770292 -4 1 C-2 0 -2 0 0 0 Z " fill="#D9DADA" transform="translate(316,397)"/>
<path d="M0 0 C2.375 1.625 2.375 1.625 4 4 C4 7.82389746 3.85254277 10.05611336 1.25 12.9375 C-1.54629833 14.25797421 -2.94511866 14.59607441 -6 14 C-8.875 11.9375 -8.875 11.9375 -11 9 C-11.125 5.375 -11.125 5.375 -10 2 C-6.61398596 -1.00979026 -4.23876925 -1.63029587 0 0 Z " fill="#E3E4E4" transform="translate(356,501)"/>
<path d="M0 0 C2.69500656 2.41859563 3.80636871 4.00763965 4.5 7.5625 C3.8102744 10.9249123 2.81866476 12.0486167 0 14 C-3.5 14.5625 -3.5 14.5625 -7 14 C-9.5 11.875 -9.5 11.875 -11 9 C-10.936318 5.81590023 -10.51040601 3.85067668 -8.875 1.125 C-5.79484632 -0.72309221 -3.49557617 -0.49060718 0 0 Z " fill="#F0F0F0" transform="translate(309,373)"/>
<path d="M0 0 C2.375 1.625 2.375 1.625 4 4 C4.60605429 7.63632575 4.47161336 9.28314769 2.4375 12.375 C-0.8994213 14.5996142 -3.06905293 14.50030235 -7 14 C-8.9375 13 -8.9375 13 -10 11 C-10.45982357 8.24105859 -10.51068558 5.75425931 -10 3 C-7.21052771 -0.43319666 -4.246332 -0.61925675 0 0 Z " fill="#EDEDED" transform="translate(350,696)"/>
<path d="M0 0 C0.33 0 0.66 0 1 0 C1.12678098 7.74111444 1.21434412 15.48196116 1.2746582 23.22387695 C1.29980157 25.85744227 1.33392084 28.49093782 1.37719727 31.12426758 C1.4378521 34.90984309 1.4662127 38.69449598 1.48828125 42.48046875 C1.51408768 43.65772018 1.5398941 44.83497162 1.56648254 46.04789734 C1.56929636 54.24941674 1.56929636 54.24941674 -1.40429688 58.16992188 C-2.68916992 59.07581055 -2.68916992 59.07581055 -4 60 C-4.66644531 60.59425781 -5.33289063 61.18851563 -6.01953125 61.80078125 C-6.61121094 62.29964844 -7.20289063 62.79851563 -7.8125 63.3125 C-8.41707031 63.82425781 -9.02164062 64.33601562 -9.64453125 64.86328125 C-10.09183594 65.23839844 -10.53914063 65.61351562 -11 66 C-11 63 -11 63 -8.6875 60.5 C-7.800625 59.675 -6.91375 58.85 -6 58 C-2.28227301 54.45698222 -2.28227301 54.45698222 -0.7215271 49.66511536 C-0.70820343 48.74800278 -0.69487976 47.8308902 -0.68115234 46.88598633 C-0.66128265 45.84513382 -0.64141296 44.80428131 -0.62094116 43.73188782 C-0.60938995 42.60993515 -0.59783875 41.48798248 -0.5859375 40.33203125 C-0.56657135 39.18208176 -0.5472052 38.03213226 -0.5272522 36.84733582 C-0.46740239 33.16913301 -0.42104894 29.490899 -0.375 25.8125 C-0.33682524 23.32094978 -0.29777381 20.82941283 -0.2578125 18.33789062 C-0.16169638 12.22537806 -0.07666462 6.11278579 0 0 Z " fill="#151315" transform="translate(358,531)"/>
<path d="M0 0 C0.99 0.33 1.98 0.66 3 1 C-0.65060439 4.75327764 -4.37202011 8.41859232 -8.25 11.9375 C-8.89453125 12.52402344 -9.5390625 13.11054687 -10.203125 13.71484375 C-12 15 -12 15 -15 15 C-10.05 10.05 -5.1 5.1 0 0 Z " fill="#EDECED" transform="translate(300,562)"/>
<path d="M0 0 C0.66 1.32 1.32 2.64 2 4 C-1.49359465 7.59634744 -5.11098131 10.83451967 -9 14 C-9 11 -9 11 -6.6875 8.5 C-5.20881647 7.12448044 -3.72990889 5.74920111 -2.25 4.375 C-0.74340914 2.90383382 -0.74340914 2.90383382 0 0 Z " fill="#0D0C0C" transform="translate(356,583)"/>
<path d="M0 0 C0 3 0 3 -1.86328125 5.12109375 C-2.67152344 5.88550781 -3.47976563 6.64992188 -4.3125 7.4375 C-7.16574783 10.15290978 -9.73012948 12.77516778 -12 16 C-12.99 15.67 -13.98 15.34 -15 15 C-10.05 10.05 -5.1 5.1 0 0 Z " fill="#1C1D1C" transform="translate(276,567)"/>
<path d="M0 0 C0.66 0.99 1.32 1.98 2 3 C-0.02393957 7.2502731 -2.20030195 11.20686071 -5 15 C-5.66 15 -6.32 15 -7 15 C-5.63408831 11.45756548 -4.09068516 8.07372071 -2.375 4.6875 C-1.70597656 3.36298828 -1.70597656 3.36298828 -1.0234375 2.01171875 C-0.68570313 1.34785156 -0.34796875 0.68398438 0 0 Z " fill="#2C2C2D" transform="translate(793,454)"/>
<path d="M0 0 C1.75 0.125 1.75 0.125 4 1 C6.25 4.0625 6.25 4.0625 8 7 C5 7 5 7 2.3125 4.625 C0 2 0 2 0 0 Z " fill="#181817" transform="translate(628,598)"/>
<path d="M0 0 C0.66 0.66 1.32 1.32 2 2 C-0.31 4.31 -2.62 6.62 -5 9 C-5.66 8.34 -6.32 7.68 -7 7 C-4.69 4.69 -2.38 2.38 0 0 Z " fill="#EEEDEE" transform="translate(280,582)"/>
<path d="M0 0 C2.46800047 1.15173355 4.04783565 2.04783565 6 4 C4.35 5.32 2.7 6.64 1 8 C0.67 5.36 0.34 2.72 0 0 Z " fill="#EDEDED" transform="translate(259,244)"/>
<path d="M0 0 C0.66 0.33 1.32 0.66 2 1 C2 1.66 2 2.32 2 3 C2.66 3 3.32 3 4 3 C4.66 4.32 5.32 5.64 6 7 C3 7 3 7 0.8125 5 C0.214375 4.34 -0.38375 3.68 -1 3 C-0.67 2.01 -0.34 1.02 0 0 Z " fill="#151515" transform="translate(645,615)"/>
<path d="M0 0 C-1.49097658 3.7952131 -3.75700849 5.61042731 -7 8 C-7.66 7.67 -8.32 7.34 -9 7 C-7.88121617 5.82737096 -6.75476949 4.66204862 -5.625 3.5 C-4.68527344 2.52546875 -4.68527344 2.52546875 -3.7265625 1.53125 C-2 0 -2 0 0 0 Z " fill="#E7E7E8" transform="translate(677,434)"/>
<path d="M0 0 C1.0725 0.103125 2.145 0.20625 3.25 0.3125 C3.25 0.6425 3.25 0.9725 3.25 1.3125 C2.3425 1.333125 1.435 1.35375 0.5 1.375 C-3.12723731 2.42131846 -3.38257149 2.76620668 -5.125 5.875 C-5.66125 7.009375 -6.1975 8.14375 -6.75 9.3125 C-7.5 7.625 -7.5 7.625 -7.75 5.3125 C-5.56193527 1.30104799 -4.62978633 0.38581553 0 0 Z " fill="#B0AFB0" transform="translate(305.75,372.6875)"/>
<path d="M0 0 C1.14926266 0.95421808 2.29430541 1.91352045 3.4375 2.875 C4.07558594 3.40867188 4.71367188 3.94234375 5.37109375 4.4921875 C7 6 7 6 8 8 C7.34 8.66 6.68 9.32 6 10 C4.99421411 8.71283353 3.99553202 7.42011342 3 6.125 C2.443125 5.40570313 1.88625 4.68640625 1.3125 3.9453125 C0 2 0 2 0 0 Z " fill="#EAE9E8" transform="translate(760,199)"/>
<path d="M0 0 C0.99 0.33 1.98 0.66 3 1 C1.35 2.98 -0.3 4.96 -2 7 C-2.66 6.67 -3.32 6.34 -4 6 C-4 5.34 -4 4.68 -4 4 C-3.34 4 -2.68 4 -2 4 C-2 3.34 -2 2.68 -2 2 C-1.34 2 -0.68 2 0 2 C0 1.34 0 0.68 0 0 Z " fill="#0E0D0D" transform="translate(314,170)"/>
<path d="M0 0 C2.31 1.98 4.62 3.96 7 6 C6.34 6.66 5.68 7.32 5 8 C0 2.25 0 2.25 0 0 Z " fill="#0A0A0A" transform="translate(584,751)"/>
<path d="M0 0 C0.66 0.99 1.32 1.98 2 3 C1.67 3.33 1.34 3.66 1 4 C0.76636119 5.84891946 0.58696365 7.70488031 0.4375 9.5625 C0.35371094 10.57441406 0.26992188 11.58632813 0.18359375 12.62890625 C0.12300781 13.41136719 0.06242187 14.19382812 0 15 C-0.33 15 -0.66 15 -1 15 C-1.02693575 12.87506859 -1.04636628 10.75004088 -1.0625 8.625 C-1.07410156 7.44164062 -1.08570313 6.25828125 -1.09765625 5.0390625 C-1 2 -1 2 0 0 Z " fill="#272727" transform="translate(329,694)"/>
<path d="M0 0 C0.8353125 0.37125 0.8353125 0.37125 1.6875 0.75 C-1.125 2.8125 -1.125 2.8125 -4.3125 4.75 C-5.3025 4.42 -6.2925 4.09 -7.3125 3.75 C-2.88173077 -0.31153846 -2.88173077 -0.31153846 0 0 Z " fill="#191919" transform="translate(284.3125,847.25)"/>
<path d="M0 0 C0.66 0.33 1.32 0.66 2 1 C1.60196439 3.88575819 1.20990931 4.82189513 -1.0625 6.75 C-1.701875 7.1625 -2.34125 7.575 -3 8 C-1.125 1.125 -1.125 1.125 0 0 Z " fill="#292A2A" transform="translate(802,436)"/>
</svg>
